# xmcd
#
# Track frame offsets: 
#        150
#        29367
#        48690
#        75091
#        92148
#        114540
#        140033
#        290893
#
# Disc length: 4715 seconds
#
# Revision: 0
# Processed by: cddbd v1.5.2PL0 Copyright (c) Steve Scherf et al.
# Submitted via: ExactAudioCopy v1.3
#
DISCID=70126908
DTITLE=London Philharmonic Orchestra, Boult - Sir Adrian Boult conduct
DTITLE=s Elgar
DYEAR=1953
DGENRE=Klassik
TTITLE0=Enigma Variations I. C.A.E. - H.D.S.P. - R.B.T. - W.M.B.
TTITLE1=Enigma Variations II. R.P.A. - YSOBEL - TROYTE
TTITLE2=Enigma Variations III. W.N. - NIMROD
TTITLE3=Enigma Variations IV. DORABELLA - G.R.S.
TTITLE4=Enigma Variations V. B.G.N. - (Romanza)
TTITLE5=Enigma Variations VI. E.D.U.
TTITLE6=Falstaff - Symphonic Study
TTITLE7=Cockaigne - Concert Overture
EXTD=
EXTT0=
EXTT1=
EXTT2=
EXTT3=
EXTT4=
EXTT5=
EXTT6=
EXTT7=
PLAYORDER=
